<svg width="74" height="74" viewBox="0 0 74 74" fill="none" xmlns="http://www.w3.org/2000/svg">
<path d="M37 0C16.565 0 0 16.565 0 37C0 57.435 16.565 74 37 74C57.435 74 74 57.435 74 37C74 16.565 57.435 0 37 0Z" fill="white"/>
<path d="M23.224 35.245V55.878H15.061C13.367 55.878 12 54.694 12 53V26.47L23.224 35.245Z" fill="#78A0CF"/>
<path d="M23.224 21V35.245L12 26.47V23.735C12 22.429 12.449 21.225 13.194 20.276C15.042 17.875 18.671 17.393 21.072 19.317L23.224 21Z" fill="#C4211F"/>
<path d="M50.775 21V35.235L37 46L23.224 35.245V21L37 31.755L50.775 21Z" fill="#EB4235"/>
<path d="M62 23.735V26.47L50.776 35.235V21L52.929 19.316C53.96 18.51 55.174 18.122 56.388 18.122C59.408 18.094 62.035 20.659 62 23.735Z" fill="#FACB3A"/>
<path d="M62 26.47V52.817C62 54.511 60.633 55.878 58.939 55.878H50.776V35.235L62 26.47Z" fill="#9CA74C"/>
<path d="M15.061 50.776V52.816" stroke="#472B29" stroke-width="0.75" stroke-miterlimit="10" stroke-linecap="round" stroke-linejoin="round"/>
<path d="M15.061 44.653V47.714" stroke="#472B29" stroke-width="0.75" stroke-miterlimit="10" stroke-linecap="round" stroke-linejoin="round"/>
<path d="M15.061 34.449V41.534" stroke="#472B29" stroke-width="0.75" stroke-miterlimit="10" stroke-linecap="round" stroke-linejoin="round"/>
<path d="M23.224 21.236V55.877H15.061C13.37 55.877 12 54.506 12 52.816V23.735C12 20.635 14.513 18.123 17.612 18.123" stroke="#472B29" stroke-width="1.4" stroke-miterlimit="10" stroke-linejoin="round"/>
<path d="M60.81 20.28C58.902 17.838 55.375 17.404 52.932 19.313L37 31.76L21.067 19.312C18.625 17.404 15.098 17.837 13.189 20.279" stroke="#472B29" stroke-width="1.4" stroke-miterlimit="10" stroke-linejoin="round"/>
<path d="M38.412 41.002L43.052 37.331" stroke="#472B29" stroke-width="0.75" stroke-miterlimit="10" stroke-linecap="round" stroke-linejoin="round"/>
<path d="M32.648 38.676L36.26 41.534" stroke="#472B29" stroke-width="0.75" stroke-miterlimit="10" stroke-linecap="round" stroke-linejoin="round"/>
<path d="M28.651 35.513L31.047 37.409" stroke="#472B29" stroke-width="0.75" stroke-miterlimit="10" stroke-linecap="round" stroke-linejoin="round"/>
<path d="M26.017 33.429L27.05 34.247" stroke="#472B29" stroke-width="0.75" stroke-miterlimit="10" stroke-linecap="round" stroke-linejoin="round"/>
<path d="M12.163 26.6L37 46.004L61.819 26.614" stroke="#472B29" stroke-width="1.4" stroke-miterlimit="10" stroke-linejoin="round"/>
<path d="M56.387 18.123C59.487 18.123 61.999 20.636 61.999 23.735V52.816C61.999 54.507 60.628 55.877 58.938 55.877H50.775V21.167" stroke="#472B29" stroke-width="1.4" stroke-miterlimit="10" stroke-linejoin="round"/>
</svg>
