<svg width="540" height="512" viewBox="0 0 540 512" fill="none" xmlns="http://www.w3.org/2000/svg">
<g filter="url(#filter0_i_0_1)">
<ellipse cx="269.678" cy="256.415" rx="269.5" ry="255.5" fill="#DE5D83"/>
</g>
<path d="M537.178 256.415C537.178 396.32 417.516 509.915 269.678 509.915C121.84 509.915 2.17841 396.32 2.17841 256.415C2.17841 116.51 121.84 2.9147 269.678 2.9147C417.516 2.9147 537.178 116.51 537.178 256.415Z" stroke="#333333" stroke-width="4"/>
<g filter="url(#filter1_d_0_1)">
<path d="M102.045 206.909H118L142.318 249.227H143.318L167.636 206.909H183.591L149.818 263.455V300H135.818V263.455L102.045 206.909ZM269.42 237.182H255.239C254.693 234.152 253.678 231.485 252.193 229.182C250.708 226.879 248.89 224.924 246.739 223.318C244.587 221.712 242.178 220.5 239.511 219.682C236.875 218.864 234.072 218.455 231.102 218.455C225.739 218.455 220.936 219.803 216.693 222.5C212.481 225.197 209.148 229.152 206.693 234.364C204.269 239.576 203.057 245.939 203.057 253.455C203.057 261.03 204.269 267.424 206.693 272.636C209.148 277.848 212.496 281.788 216.739 284.455C220.981 287.121 225.754 288.455 231.057 288.455C233.996 288.455 236.784 288.061 239.42 287.273C242.087 286.455 244.496 285.258 246.648 283.682C248.799 282.106 250.617 280.182 252.102 277.909C253.617 275.606 254.663 272.97 255.239 270L269.42 270.045C268.663 274.621 267.193 278.833 265.011 282.682C262.86 286.5 260.087 289.803 256.693 292.591C253.33 295.348 249.481 297.485 245.148 299C240.814 300.515 236.087 301.273 230.966 301.273C222.905 301.273 215.723 299.364 209.42 295.545C203.117 291.697 198.148 286.197 194.511 279.045C190.905 271.894 189.102 263.364 189.102 253.455C189.102 243.515 190.92 234.985 194.557 227.864C198.193 220.712 203.163 215.227 209.466 211.409C215.769 207.561 222.936 205.636 230.966 205.636C235.905 205.636 240.511 206.348 244.784 207.773C249.087 209.167 252.951 211.227 256.375 213.955C259.799 216.652 262.633 219.955 264.875 223.864C267.117 227.742 268.633 232.182 269.42 237.182ZM284.955 300V289.818L316.455 257.182C319.818 253.636 322.591 250.53 324.773 247.864C326.985 245.167 328.636 242.606 329.727 240.182C330.818 237.758 331.364 235.182 331.364 232.455C331.364 229.364 330.636 226.697 329.182 224.455C327.727 222.182 325.742 220.439 323.227 219.227C320.712 217.985 317.879 217.364 314.727 217.364C311.394 217.364 308.485 218.045 306 219.409C303.515 220.773 301.606 222.697 300.273 225.182C298.939 227.667 298.273 230.576 298.273 233.909H284.864C284.864 228.242 286.167 223.288 288.773 219.045C291.379 214.803 294.955 211.515 299.5 209.182C304.045 206.818 309.212 205.636 315 205.636C320.848 205.636 326 206.803 330.455 209.136C334.939 211.439 338.439 214.591 340.955 218.591C343.47 222.561 344.727 227.045 344.727 232.045C344.727 235.5 344.076 238.879 342.773 242.182C341.5 245.485 339.273 249.167 336.091 253.227C332.909 257.258 328.485 262.152 322.818 267.909L304.318 287.273V287.955H346.227V300H284.955ZM394.182 301.273C388.485 301.273 383.364 300.182 378.818 298C374.303 295.788 370.697 292.758 368 288.909C365.303 285.061 363.864 280.667 363.682 275.727H377.318C377.652 279.727 379.424 283.015 382.636 285.591C385.848 288.167 389.697 289.455 394.182 289.455C397.758 289.455 400.924 288.636 403.682 287C406.47 285.333 408.652 283.045 410.227 280.136C411.833 277.227 412.636 273.909 412.636 270.182C412.636 266.394 411.818 263.015 410.182 260.045C408.545 257.076 406.288 254.742 403.409 253.045C400.561 251.348 397.288 250.485 393.591 250.455C390.773 250.455 387.939 250.939 385.091 251.909C382.242 252.879 379.939 254.152 378.182 255.727L365.318 253.818L370.545 206.909H421.727V218.955H382.227L379.273 245H379.818C381.636 243.242 384.045 241.773 387.045 240.591C390.076 239.409 393.318 238.818 396.773 238.818C402.439 238.818 407.485 240.167 411.909 242.864C416.364 245.561 419.864 249.242 422.409 253.909C424.985 258.545 426.258 263.879 426.227 269.909C426.258 275.939 424.894 281.318 422.136 286.045C419.409 290.773 415.621 294.5 410.773 297.227C405.955 299.924 400.424 301.273 394.182 301.273Z" fill="white"/>
</g>
<g filter="url(#filter2_d_0_1)">
<path d="M150.291 312.985L118.811 355.682L170.968 427.99L105.615 397.538L99.2785 355.019L150.291 312.985Z" fill="#333333"/>
<path d="M47.0634 337.532C67.2515 352.316 85.9316 366.017 85.9316 366.017L29 366.017L47.0634 337.532Z" fill="#333333"/>
<path d="M185.5 497L105.615 397.538M8.80664 309.56C18.5313 316.647 33.1553 327.346 47.0634 337.532M85.9316 366.017L99.2785 355.019M85.9316 366.017L105.615 397.538M85.9316 366.017L29 366.017L47.0634 337.532M85.9316 366.017C85.9316 366.017 67.2515 352.316 47.0634 337.532M99.2785 355.019L105.615 397.538M99.2785 355.019L69.7516 317.549L47.0634 337.532M99.2785 355.019L150.291 312.985L118.811 355.682L170.968 427.99L105.615 397.538" stroke="#1E1E1E" stroke-width="2"/>
</g>
<g filter="url(#filter3_d_0_1)">
<path d="M413.877 119.221L406.07 131.945L381.48 119.946L406.335 109.826L413.877 119.221Z" fill="#333333"/>
<path d="M460.541 177.355L372.899 186.009L406.07 131.945L435.691 146.398L460.541 177.355Z" fill="#333333"/>
<path d="M324.678 8.02341L406.335 109.826M527.227 191.363L435.691 146.398M413.877 119.221L406.07 131.945M413.877 119.221L406.335 109.826M413.877 119.221L424.073 102.603L406.335 109.826M413.877 119.221L435.691 146.398M406.07 131.945L381.48 119.946L406.335 109.826M406.07 131.945L372.899 186.009L460.541 177.355L435.691 146.398M406.07 131.945L435.691 146.398" stroke="#1E1E1E" stroke-width="2"/>
</g>
<defs>
<filter id="filter0_i_0_1" x="0.178406" y="0.914703" width="539" height="515" filterUnits="userSpaceOnUse" color-interpolation-filters="sRGB">
<feFlood flood-opacity="0" result="BackgroundImageFix"/>
<feBlend mode="normal" in="SourceGraphic" in2="BackgroundImageFix" result="shape"/>
<feColorMatrix in="SourceAlpha" type="matrix" values="0 0 0 0 0 0 0 0 0 0 0 0 0 0 0 0 0 0 127 0" result="hardAlpha"/>
<feOffset dy="4"/>
<feGaussianBlur stdDeviation="2"/>
<feComposite in2="hardAlpha" operator="arithmetic" k2="-1" k3="1"/>
<feColorMatrix type="matrix" values="0 0 0 0 0 0 0 0 0 0 0 0 0 0 0 0 0 0 0.25 0"/>
<feBlend mode="normal" in2="shape" result="effect1_innerShadow_0_1"/>
</filter>
<filter id="filter1_d_0_1" x="98.0455" y="205.636" width="332.227" height="103.636" filterUnits="userSpaceOnUse" color-interpolation-filters="sRGB">
<feFlood flood-opacity="0" result="BackgroundImageFix"/>
<feColorMatrix in="SourceAlpha" type="matrix" values="0 0 0 0 0 0 0 0 0 0 0 0 0 0 0 0 0 0 127 0" result="hardAlpha"/>
<feOffset dy="4"/>
<feGaussianBlur stdDeviation="2"/>
<feComposite in2="hardAlpha" operator="out"/>
<feColorMatrix type="matrix" values="0 0 0 0 0 0 0 0 0 0 0 0 0 0 0 0 0 0 0.25 0"/>
<feBlend mode="normal" in2="BackgroundImageFix" result="effect1_dropShadow_0_1"/>
<feBlend mode="normal" in="SourceGraphic" in2="effect1_dropShadow_0_1" result="shape"/>
</filter>
<filter id="filter2_d_0_1" x="3.21767" y="303.752" width="188.062" height="198.874" filterUnits="userSpaceOnUse" color-interpolation-filters="sRGB">
<feFlood flood-opacity="0" result="BackgroundImageFix"/>
<feColorMatrix in="SourceAlpha" type="matrix" values="0 0 0 0 0 0 0 0 0 0 0 0 0 0 0 0 0 0 127 0" result="hardAlpha"/>
<feOffset/>
<feGaussianBlur stdDeviation="2.5"/>
<feComposite in2="hardAlpha" operator="out"/>
<feColorMatrix type="matrix" values="0 0 0 0 0 0 0 0 0 0 0 0 0 0 0 0 0 0 0.4 0"/>
<feBlend mode="normal" in2="BackgroundImageFix" result="effect1_dropShadow_0_1"/>
<feBlend mode="normal" in="SourceGraphic" in2="effect1_dropShadow_0_1" result="shape"/>
</filter>
<filter id="filter3_d_0_1" x="318.898" y="2.39771" width="213.77" height="194.863" filterUnits="userSpaceOnUse" color-interpolation-filters="sRGB">
<feFlood flood-opacity="0" result="BackgroundImageFix"/>
<feColorMatrix in="SourceAlpha" type="matrix" values="0 0 0 0 0 0 0 0 0 0 0 0 0 0 0 0 0 0 127 0" result="hardAlpha"/>
<feOffset/>
<feGaussianBlur stdDeviation="2.5"/>
<feComposite in2="hardAlpha" operator="out"/>
<feColorMatrix type="matrix" values="0 0 0 0 0 0 0 0 0 0 0 0 0 0 0 0 0 0 0.36 0"/>
<feBlend mode="normal" in2="BackgroundImageFix" result="effect1_dropShadow_0_1"/>
<feBlend mode="normal" in="SourceGraphic" in2="effect1_dropShadow_0_1" result="shape"/>
</filter>
</defs>
</svg>
